<svg xmlns="http://www.w3.org/2000/svg" xmlns:xlink="http://www.w3.org/1999/xlink" version="1.1" width="400pt" height="100pt" viewBox="45 170 290 20">
<defs>
<clipPath id="clip_3">
<path transform="matrix(.24,0,0,.24,0,0)" d="M0 0H1562.5V1562.5H0Z" fill-rule="evenodd"/>
</clipPath>
</defs>
<g clip-path="url(#clip_3)">
<text fill="#ffffff" xml:space="preserve" transform="matrix(.75 0 0 .75 47.193765 165.375)" font-size="42.25" font-family="DMSans" font-weight="bold"><tspan y="43" x=".046875 43.9036 61.607629 99.29587 135.67436 171.8416 202.8121">MICHAEL</tspan></text>
<text fill="#ffffff" xml:space="preserve" transform="matrix(.75 0 0 .75 47.193765 165.375)" font-size="42.25" font-family="DMSans"><tspan y="43" x="232.64063 263.65339 295.25764 329.86164 360.07167">PRATT</tspan></text>
<text fill="#cfcfcf" xml:space="preserve" transform="matrix(.75 0 0 .75 48.581308 199.31493)" font-size="15.59" font-family="DMSans" font-weight="bold"><tspan y="15" x=".1875 13.680296 25.101223 38.40708 49.82801 60.82833 75.567378 87.44007 98.861 110.98293 117.10732 127.73377 133.85816 150.03038 161.45131 175.0999 186.72335 201.46239 213.58432 219.70871 230.33516 236.45955 247.88048 261.52906 273.1525 285.2744 296.69535 308.56803 320.68995 332.11088 345.75947 357.1804 370.20585"> - DEVELOPER - MENTOR - BUILDER -</tspan></text>
</g>
</svg>
